<?xml version="1.0" encoding="UTF-8"?><svg id="a" xmlns="http://www.w3.org/2000/svg" width="64" height="56" viewBox="0 0 64 56"><path id="b" d="M0,21.22v10.78c.53-.42,1.09-.81,1.68-1.15L30.57,12.89c1.04-.57,2.3-.57,3.34.01l28.43,17.94c.92.58-.07-.05,1.67,1.1v-10.72c-.09-1.15-.71-2.19-1.67-2.84L33.91.44c-1.04-.58-2.3-.59-3.34-.01L1.68,18.39c-.96.64-1.58,1.68-1.67,2.83" fill="#98d0d4" stroke-width="0"/><path id="c" d="M0,39.24v16.76c.53-.42,1.09-.81,1.68-1.15l28.89-17.96c1.04-.57,2.3-.57,3.34.01l28.43,17.94c.92.58-.07-.05,1.66,1.1v-16.7c-.09-1.15-.71-2.19-1.67-2.84l-28.43-17.94c-1.04-.58-2.3-.59-3.34-.01L1.68,36.41c-.96.64-1.58,1.68-1.67,2.83" fill="#98d0d4" stroke-width="0"/></svg>